<?xml version="1.0" standalone="no"?>
<!DOCTYPE svg PUBLIC "-//W3C//DTD SVG 20010904//EN"
 "http://www.w3.org/TR/2001/REC-SVG-20010904/DTD/svg10.dtd">
<svg version="1.0" xmlns="http://www.w3.org/2000/svg"
 width="878.000000pt" height="475.000000pt" viewBox="0 0 878.000000 475.000000"
 preserveAspectRatio="xMidYMid meet">

<g transform="translate(0.000000,475.000000) scale(0.100000,-0.100000)"
fill="#000000" stroke="none">
<path d="M0 2880 l0 -1870 4390 0 4390 0 0 1870 0 1870 -4390 0 -4390 0 0
-1870z m8690 0 l0 -1770 -4300 0 -4300 0 0 1770 0 1770 4300 0 4300 0 0 -1770z"/>
<path d="M1730 4303 c-221 -24 -464 -112 -650 -236 -97 -64 -272 -240 -339
-341 -109 -162 -193 -374 -233 -591 -18 -94 -17 -427 1 -525 52 -288 176 -550
351 -742 427 -469 1228 -567 1763 -214 88 58 237 197 237 221 0 7 -22 29 -48
48 l-48 36 -95 -92 c-142 -137 -318 -226 -541 -274 -114 -24 -380 -24 -495 0
-108 23 -274 81 -343 120 -143 80 -285 200 -376 319 -119 154 -209 360 -251
573 -27 138 -24 426 6 565 96 450 380 790 781 935 161 58 388 85 555 65 152
-17 246 -44 409 -115 59 -25 164 -97 232 -159 l61 -55 49 50 49 51 -55 50
c-226 206 -550 322 -885 316 -55 0 -116 -3 -135 -5z"/>
<path d="M4440 4300 c-86 -10 -260 -52 -340 -83 -383 -144 -678 -458 -803
-853 -53 -167 -71 -293 -71 -489 0 -189 10 -264 59 -453 25 -95 106 -277 163
-367 52 -82 150 -195 236 -273 485 -439 1305 -457 1789 -39 31 28 73 69 92 93
l35 42 -51 41 -52 41 -74 -74 c-147 -148 -352 -253 -583 -298 -84 -16 -376
-15 -460 1 -251 49 -457 157 -631 330 -144 143 -245 312 -307 511 -43 135 -50
172 -64 310 -34 346 64 703 264 968 205 271 498 429 860 463 322 31 659 -75
874 -274 l61 -56 49 50 49 50 -60 56 c-244 229 -650 348 -1035 303z"/>
<path d="M7165 4300 c-196 -25 -439 -113 -590 -213 -488 -322 -713 -924 -584
-1562 89 -438 388 -806 791 -974 425 -177 937 -138 1297 99 89 58 197 152 231
200 l20 28 -50 42 -50 42 -73 -74 c-144 -148 -341 -250 -563 -294 -122 -25
-376 -25 -497 -1 -551 110 -927 547 -988 1147 -44 442 132 900 445 1158 196
162 402 245 674 273 130 13 269 4 400 -27 173 -39 389 -153 491 -258 l44 -45
48 42 c27 23 49 47 49 53 0 18 -110 116 -187 167 -123 82 -261 137 -443 178
-108 24 -348 34 -465 19z"/>
<path d="M5503 838 c-6 -7 -34 -96 -64 -198 -57 -194 -89 -261 -142 -290 -23
-12 -29 -13 -36 -1 -12 19 5 86 44 168 30 65 32 74 19 88 -9 8 -19 15 -24 15
-11 0 -50 -41 -50 -52 0 -5 -10 3 -23 18 -20 23 -28 26 -59 20 -42 -8 -94 -61
-104 -104 -12 -55 -39 -104 -73 -133 -62 -51 -91 -35 -91 51 0 56 22 138 45
173 15 22 25 11 34 -36 4 -17 12 -32 18 -34 21 -7 25 36 6 75 -38 78 -127 43
-158 -62 -31 -103 -11 -186 50 -212 49 -20 95 -5 137 46 l32 38 19 -24 c23
-30 54 -31 84 -2 l23 21 0 -26 c0 -77 109 -90 166 -21 9 11 13 1 17 -44 5 -45
12 -62 32 -79 14 -13 32 -23 40 -23 15 0 51 42 60 71 8 24 21 24 28 0 2 -10
17 -27 31 -37 25 -16 30 -16 61 -1 26 12 43 33 68 83 29 57 35 64 46 50 18
-22 53 -20 85 5 l26 20 0 -29 c0 -63 76 -83 137 -36 47 35 115 174 86 174 -5
0 -23 -29 -42 -65 -35 -69 -74 -108 -100 -103 -27 6 -16 78 25 167 30 66 34
83 24 96 -19 23 -36 18 -63 -16 -24 -31 -25 -31 -32 -10 -14 47 -104 32 -141
-24 -9 -14 -25 -58 -36 -96 -21 -80 -50 -143 -81 -177 -34 -37 -47 -28 -47 31
0 66 19 144 66 277 20 58 37 121 38 140 1 32 -1 35 -29 35 -30 0 -30 -1 -68
-130 -89 -303 -112 -365 -138 -365 -12 0 -11 82 1 140 6 25 36 128 67 229 56
177 57 184 38 197 -23 17 -40 18 -52 2z m-293 -301 c0 -66 -74 -181 -95 -147
-12 20 29 134 63 172 20 23 32 14 32 -25z m653 29 c13 -33 -24 -136 -62 -170
-19 -18 -21 -18 -27 -1 -13 32 49 185 75 185 5 0 11 -6 14 -14z"/>
<path d="M4139 793 c-59 -138 -71 -192 -74 -350 l-4 -153 26 -20 c30 -24 89
-26 119 -6 11 8 28 33 39 55 24 53 87 88 119 65 26 -18 53 -18 89 0 34 18 34
10 5 -66 l-23 -58 -48 0 c-42 0 -54 -5 -83 -34 -40 -40 -45 -85 -14 -116 37
-37 94 -21 155 45 l40 43 65 -14 c103 -21 163 4 130 56 -7 12 -12 12 -29 -4
-17 -16 -31 -18 -82 -13 -33 3 -63 7 -66 10 -2 3 19 78 47 167 56 176 59 205
21 205 -22 0 -27 -9 -47 -73 -22 -73 -42 -105 -77 -124 -24 -13 -47 7 -47 40
0 14 9 45 21 69 22 46 20 73 -6 73 -18 0 -51 -50 -67 -103 -6 -21 -25 -50 -42
-64 l-31 -26 -3 24 c-1 13 -7 41 -12 61 -16 57 -65 62 -116 11 -16 -17 -17
-15 -11 42 3 33 20 101 37 150 41 113 44 149 12 153 -18 3 -26 -5 -43 -45z
m69 -356 c3 -36 3 -37 -32 -37 -20 0 -36 3 -36 6 0 17 44 74 54 71 6 -2 12
-20 14 -40z m-11 -80 c2 -3 -2 -16 -8 -31 -13 -27 -47 -43 -74 -32 -18 7 -20
62 -2 70 12 5 76 0 84 -7z m213 -143 c0 -16 -44 -75 -62 -85 -16 -8 -23 -8
-29 2 -14 23 -10 39 16 64 21 22 75 35 75 19z"/>
<path d="M2290 789 c-32 -13 -84 -63 -121 -116 -77 -111 -108 -287 -63 -363
26 -46 78 -80 121 -80 71 0 165 76 205 167 20 45 16 74 -6 39 -74 -123 -155
-187 -209 -167 -79 30 -76 200 5 354 29 54 96 127 118 127 19 0 23 -51 7 -91
-17 -43 -4 -66 20 -33 37 50 37 133 -1 159 -23 17 -41 18 -76 4z"/>
<path d="M3302 788 c-5 -7 -13 -24 -17 -36 -5 -18 -12 -22 -28 -18 -61 17
-104 18 -110 2 -7 -19 12 -33 23 -16 6 9 16 9 49 -1 22 -7 41 -16 41 -22 0
-28 -84 -268 -106 -300 -29 -44 -68 -67 -86 -49 -14 14 4 87 44 170 30 65 31
88 2 99 -12 4 -24 -3 -39 -21 l-23 -28 -21 21 c-54 54 -147 -9 -166 -112 -21
-110 -165 -195 -165 -97 0 25 4 30 24 30 34 0 76 53 76 96 0 40 -29 74 -62 74
-57 0 -99 -48 -112 -130 -9 -49 -88 -194 -109 -198 -26 -5 -21 26 13 100 17
36 28 72 24 81 -3 8 -23 23 -45 31 -46 19 -50 40 -20 107 23 50 14 72 -28 67
-20 -2 -28 -11 -38 -48 -17 -58 -9 -95 28 -121 35 -24 35 -37 7 -134 -25 -85
-18 -120 27 -131 35 -9 70 25 115 109 l34 64 24 -28 c13 -16 39 -33 59 -38 44
-12 76 2 122 55 l32 36 20 -21 c25 -27 49 -27 83 0 l26 20 0 -30 c0 -60 83
-82 138 -36 36 30 42 31 42 4 0 -27 52 -79 80 -79 27 0 66 40 89 91 l19 41 18
-30 c24 -42 58 -57 116 -53 9 0 30 13 47 27 l31 26 21 -26 c25 -32 66 -34 103
-5 l26 20 0 -26 c0 -89 90 -129 145 -64 27 33 29 54 4 54 -8 0 -15 -10 -17
-22 -8 -57 -56 -51 -73 11 -14 51 -4 117 47 303 39 146 38 168 -7 168 -22 0
-26 -9 -58 -128 -29 -105 -37 -127 -50 -121 -47 20 -71 16 -106 -19 -20 -20
-35 -45 -35 -58 0 -36 -37 -89 -73 -104 -42 -17 -67 -4 -67 35 0 25 4 30 23
30 33 0 68 41 74 87 5 35 2 43 -23 62 -57 45 -119 8 -148 -87 -22 -68 -59
-143 -82 -167 -17 -16 -18 -16 -31 1 -25 35 -10 129 47 286 l32 87 54 -1 c47
-1 58 2 84 27 16 15 27 32 24 37 -4 5 -18 -2 -33 -16 -21 -20 -37 -26 -70 -26
l-43 0 6 36 c10 51 -24 85 -52 52z m-286 -223 c11 -29 -17 -113 -51 -152 -30
-34 -34 -36 -41 -19 -13 33 51 186 77 186 5 0 12 -7 15 -15z m-256 -58 c0 -25
-26 -67 -41 -67 -14 0 -11 27 6 60 18 36 35 39 35 7z m740 8 c0 -22 -29 -75
-40 -75 -15 0 -12 27 5 60 17 32 35 40 35 15z m211 -31 c24 -29 -25 -155 -54
-137 -12 7 -3 103 13 132 13 25 23 26 41 5z"/>
<path d="M6322 624 c-28 -19 -49 -59 -62 -118 -20 -92 15 -177 80 -189 39 -8
68 3 109 44 24 24 35 30 39 20 9 -26 42 -51 67 -51 33 0 61 29 75 78 12 38 12
38 46 28 22 -7 38 -20 45 -39 13 -30 52 -46 78 -30 9 5 25 28 36 51 14 30 24
41 35 36 40 -17 51 -15 80 15 18 18 28 36 24 43 -5 8 -15 2 -30 -17 -20 -26
-26 -28 -51 -19 -16 5 -35 23 -44 41 -9 18 -22 40 -29 48 -26 32 -95 -15 -106
-72 -3 -18 -12 -33 -20 -33 -20 0 -54 37 -66 71 -15 43 -41 53 -82 34 -32 -16
-42 -31 -76 -122 -13 -36 -82 -103 -104 -103 -27 0 -46 30 -46 75 0 77 55 219
73 188 2 -4 7 -25 11 -46 4 -23 12 -37 19 -34 19 6 20 52 2 86 -12 25 -22 31
-48 31 -18 0 -43 -7 -55 -16z m496 -152 c4 -34 -24 -96 -38 -87 -13 8 -12 39
2 87 13 45 32 45 36 0z m-213 6 c8 -32 -18 -113 -35 -113 -21 0 -24 55 -6 99
17 41 33 46 41 14z"/>
</g>
</svg>
